<svg width="90" height="90" viewBox="0 0 90 90" fill="none" xmlns="http://www.w3.org/2000/svg">
<circle cx="45" cy="45" r="45" fill="#DBDBDB"/>
<path d="M44.2969 44.2969C48.7644 44.2969 52.3828 40.6784 52.3828 36.2109C52.3828 31.7435 48.7644 28.125 44.2969 28.125C39.8294 28.125 36.2109 31.7435 36.2109 36.2109C36.2109 40.6784 39.8294 44.2969 44.2969 44.2969ZM44.2969 48.3398C38.8995 48.3398 28.125 51.0486 28.125 56.4258V58.4473C28.125 59.5591 29.0347 60.4688 30.1465 60.4688H58.4473C59.5591 60.4688 60.4688 59.5591 60.4688 58.4473V56.4258C60.4688 51.0486 49.6942 48.3398 44.2969 48.3398Z" fill="#949494"/>
</svg>
